<?xml version="1.0" encoding="UTF-8" standalone="no"?>
<!-- Created with Inkscape (http://www.inkscape.org/) -->

<svg
   width="512"
   height="512"
   viewBox="0 0 135.46667 135.46667"
   version="1.1"
   id="svg1"
   inkscape:version="1.4.3 (0d15f75042, 2025-12-25)"
   sodipodi:docname="androidlogo.svg"
   xmlns:inkscape="http://www.inkscape.org/namespaces/inkscape"
   xmlns:sodipodi="http://sodipodi.sourceforge.net/DTD/sodipodi-0.dtd"
   xmlns="http://www.w3.org/2000/svg"
   xmlns:svg="http://www.w3.org/2000/svg">
  <sodipodi:namedview
     id="namedview1"
     pagecolor="#ffffff"
     bordercolor="#000000"
     borderopacity="0.25"
     inkscape:showpageshadow="2"
     inkscape:pageopacity="0.0"
     inkscape:pagecheckerboard="0"
     inkscape:deskcolor="#d1d1d1"
     inkscape:document-units="mm"
     inkscape:zoom="0.25480595"
     inkscape:cx="227.6242"
     inkscape:cy="292.37936"
     inkscape:window-width="1920"
     inkscape:window-height="1012"
     inkscape:window-x="0"
     inkscape:window-y="0"
     inkscape:window-maximized="1"
     inkscape:current-layer="g2" />
  <defs
     id="defs1" />
  <g
     inkscape:label="Capa 1"
     inkscape:groupmode="layer"
     id="layer1">
    <g
       id="g10"
       transform="matrix(0.64374016,0,0,0.64374016,44.986382,43.554273)">
      <rect
         style="fill:#333333;stroke-width:0;stroke-linecap:square"
         id="rect2"
         width="210.43687"
         height="210.43687"
         x="-69.882828"
         y="-67.658157"
         ry="105.21844" />
      <path
         d="m 62.702736,37.306311 c 5.44736,5.540102 8.49387,12.164676 10.67352,21.218629 l 1.04881,4.83376 0.874,4.651836 c 1.13085,6.096612 1.81221,8.875576 2.81107,11.101606 2.60773,5.800527 7.24886,11.818654 14.02328,17.979471 3.71718,3.381847 3.9669,9.118157 0.5565,12.810377 -3.4104,3.69222 -9.18593,3.94193 -12.90312,0.56008 -8.49744,-7.73403 -14.64756,-15.699941 -18.35761,-23.95479 -1.43764,-3.199928 -2.29737,-6.178668 -3.2998,-11.108752 l -1.72304,-9.028971 -0.32105,-1.537537 c -1.56607,-7.31664 -3.45321,-11.807947 -6.45335,-14.858026 -5.46876,-5.557941 -18.73575,-4.009711 -21.97491,1.073766 -4.75885,7.470049 -6.00742,20.469481 -2.11187,33.650868 3.10717,10.512995 7.22746,20.861892 12.37516,31.050252 2.26169,4.47347 0.43877,9.92438 -4.07036,12.16825 -4.50913,2.24743 -9.99574,0.43879 -12.25387,-4.03468 -5.62927,-11.14798 -10.15624,-22.50644 -13.5737801,-34.071801 -5.29753,-17.933104 -3.53524,-36.30498 4.2059101,-48.451823 9.48559,-14.886574 36.69382,-18.065087 50.47451,-4.052515 m -22.85248,19.413551 c 5.04067,-0.167674 9.26087,3.784964 9.42852,8.82206 a 70.087828,70.087828 0 0 0 12.77113,38.063688 l 1.73731,2.35802 2.73972,3.56379 c 3.07506,3.99543 2.32948,9.72818 -1.66595,12.8068 -3.68865,2.83961 -8.85774,2.42223 -12.05053,-0.80265 l -0.75627,-0.8633 -2.73973,-3.56023 A 88.377658,88.377658 0 0 1 31.024626,66.155516 c -0.16767,-5.044243 3.78496,-9.267994 8.82563,-9.435654 M 4.2409159,11.867502 C 24.339396,-3.0119371 50.587996,-2.2057161 68.314196,9.1848499 c 8.77925,5.6435561 15.46447,12.2609991 19.93079,19.8808711 2.55066,4.348605 1.09162,9.945787 -3.26056,12.496444 -4.3486,2.550657 -9.94578,1.091611 -12.49644,-3.260562 -2.9288,-4.994298 -7.56992,-9.589049 -14.05181,-13.755723 -11.68666,-7.51285 -29.73746,-8.065789 -43.32909,1.99772 -14.24088005,10.545102 -20.2804101,28.735046 -18.4717601,48.009468 1.02382,10.912536 4.32005005,21.967773 9.93507,33.197802 2.25457,4.50915 0.42808,9.99574 -4.08462,12.25031 -4.50913,2.25456 -9.99573,0.42808 -12.25029,-4.08462 C -16.364124,102.72447 -20.306054,89.493153 -21.547494,76.254693 -23.901954,51.158347 -15.779074,26.689861 4.2409159,11.867502 M 100.79139,58.981565 c 0.26398,5.119155 1.50542,9.228748 3.65654,12.492868 2.02625,3.071503 3.64226,4.526983 4.45562,4.773128 4.82664,1.459053 7.55566,6.556798 6.09661,11.383426 -1.45904,4.826642 -6.5568,7.555665 -11.38343,6.096612 -5.586484,-1.690921 -10.263284,-5.893262 -14.419254,-12.203916 -4.03111,-6.118023 -6.22146,-13.370457 -6.64599,-21.603909 -0.2604,-5.037108 3.61374,-9.328626 8.65084,-9.589049 5.03712,-0.260422 9.328644,3.613732 9.589064,8.65084 M 21.514056,-17.673768 c 2.06906,4.598321 0.0214,10.0064309 -4.58048,12.0754979 -16.37773005,7.373724 -28.37476,17.8296421 -36.25147,31.4640731 -9.88514,17.11617 -12.56066,37.200386 -10.34533,54.081108 0.65639,5.001433 -2.86459,9.585477 -7.86602,10.24188 -5.00144,0.656388 -9.58549,-2.864594 -10.24188,-7.866029 -2.69692,-20.555099 0.50299,-44.584801 12.63914,-65.592956 9.85304,-17.05909109 24.79669,-30.087074 44.5705299,-38.984058 4.6019001,-2.069066 10.0064301,-0.01784 12.0755101,4.580484 m 22.49573,-9.421385 c 17.30525,0.353169 34.43569,8.261994 51.3164,23.2805589 17.069804,15.1898011 27.350934,35.8233831 30.829084,61.4869431 0.67781,4.99786 -2.82534,9.599742 -7.8232,10.273981 -4.99786,0.677787 -9.59975,-2.825344 -10.27399,-7.82322 C 105.14712,38.622666 96.860156,21.995223 83.190056,9.8305409 c -13.86274,-12.335915 -27.02272,-18.411121 -39.55127,-18.66797 -5.04068,-0.103456 -9.04681,-4.2736909 -8.94336,-9.3179319 0.0999,-5.040672 4.27012,-9.043246 9.31436,-8.939792 m -66.82369,2.101172 c 3.35332,3.767127 3.02154,9.539108 -0.74558,12.892423 -2.37943,2.1190089 -4.88371,4.6589649 -7.50928,7.6163019 -2.41153,2.721893 -4.91225,6.289249 -7.45935,10.6985 -2.52212,4.3664421 -8.1086,5.8611641 -12.47504,3.339044 -4.36645,-2.52212 -5.86116,-8.108598 -3.33904,-12.475041 3.12499,-5.411678 6.31779,-9.9743259 9.61045,-13.6843759 3.08219,-3.474603 6.08591,-6.517557 9.02542,-9.135996 3.76713,-3.349742 9.53911,-3.017982 12.89242,0.749144 m 62.8782,-28.624462 c 20.47306,0.959621 39.45851,5.43665 53.54956,16.317081 3.99188,3.082195 4.73032,8.818503 1.64813,12.810378 -3.08219,3.991871 -8.81495,4.730313 -12.81037,1.644551 -10.9839,-8.479596 -26.36275,-11.736597 -43.23991,-12.528557 -16.94494,-0.795519 -30.7327701,2.215338 -41.5596901,8.864883 -4.29866,2.639843 -9.9208099,1.29495 -12.5606599,-3.000151 -2.63985,-4.29865 -1.29495,-9.920811 3.00015,-12.560645 14.1730899,-8.704356 31.56751,-12.503586 51.97279,-11.54754"
         style="fill:#9266cc;stroke-width:0.356735"
         id="path1-5" />
      <g
         id="g2"
         transform="matrix(1.1412808,0,0,1.1412808,-479.48924,22.307247)">
        <rect
           style="fill:#333333;stroke-width:0;stroke-linecap:square"
           id="rect1"
           width="176.96651"
           height="33.011452"
           x="362.61069"
           y="-3.1408882" />
        <g
           style="fill:#ffffff"
           id="g9"
           transform="matrix(0.3116163,0,0,0.3116163,354.18497,-67.543279)">
          <g
             id="g7"
             style="fill:#ffffff">
            <g
               id="g6"
               style="fill:#ffffff">
              <text
                 xml:space="preserve"
                 style="font-style:normal;font-variant:normal;font-weight:850;font-stretch:normal;font-size:122.88px;font-family:Uniwars;-inkscape-font-specification:'Uniwars weight=850';text-align:center;writing-mode:lr-tb;direction:ltr;text-anchor:middle;fill:#ffffff;stroke:none;stroke-width:0;stroke-linecap:square;stroke-opacity:1"
                 x="310.7424"
                 y="301.23508"
                 id="text2"><tspan
                   sodipodi:role="line"
                   id="tspan1"
                   style="font-style:normal;font-variant:normal;font-weight:850;font-stretch:normal;font-family:Uniwars;-inkscape-font-specification:'Uniwars weight=850';fill:#ffffff;stroke:none;stroke-width:0;stroke-opacity:1"
                   x="310.7424"
                   y="301.23508">LAG-ID</tspan></text>
            </g>
          </g>
          <g
             id="g8"
             style="fill:#ffffff" />
        </g>
      </g>
    </g>
  </g>
</svg>
