<?xml version="1.0" encoding="UTF-8" standalone="no"?>
<!-- Created with Inkscape (http://www.inkscape.org/) -->

<svg
   width="512"
   height="512"
   viewBox="0 0 135.46666 135.46667"
   version="1.1"
   id="svg1"
   inkscape:version="1.4.3 (0d15f75042, 2025-12-25)"
   sodipodi:docname="lagid_icon.svg"
   xmlns:inkscape="http://www.inkscape.org/namespaces/inkscape"
   xmlns:sodipodi="http://sodipodi.sourceforge.net/DTD/sodipodi-0.dtd"
   xmlns="http://www.w3.org/2000/svg"
   xmlns:svg="http://www.w3.org/2000/svg">
  <sodipodi:namedview
     id="namedview1"
     pagecolor="#ffffff"
     bordercolor="#000000"
     borderopacity="0.25"
     inkscape:showpageshadow="2"
     inkscape:pageopacity="0.0"
     inkscape:pagecheckerboard="0"
     inkscape:deskcolor="#d1d1d1"
     inkscape:document-units="mm"
     inkscape:zoom="0.72070006"
     inkscape:cx="396.83638"
     inkscape:cy="561.25984"
     inkscape:window-width="1920"
     inkscape:window-height="1012"
     inkscape:window-x="0"
     inkscape:window-y="0"
     inkscape:window-maximized="1"
     inkscape:current-layer="layer1" />
  <defs
     id="defs1" />
  <g
     inkscape:label="Capa 1"
     inkscape:groupmode="layer"
     id="layer1">
    <g
       id="g17"
       transform="translate(-299.49603,-79.902348)"
       inkscape:export-filename="../../lagid_icon.png"
       inkscape:export-xdpi="96"
       inkscape:export-ydpi="96">
      <rect
         style="fill:none;stroke:none;stroke-width:0;stroke-linecap:square"
         id="rect11"
         width="135.46666"
         height="135.46666"
         x="299.49603"
         y="79.902351"
         ry="0" />
      <path
         d="m 382.31839,147.49565 c 3.00343,3.05457 4.68315,6.70707 5.88491,11.69902 l 0.57827,2.66513 0.48189,2.56482 c 0.6235,3.3614 0.99917,4.8936 1.5499,6.12094 1.43778,3.19815 3.9967,6.51628 7.73181,9.91308 2.04949,1.86461 2.18718,5.02735 0.30684,7.06308 -1.88035,2.03572 -5.06473,2.17341 -7.11422,0.30881 -4.68511,-4.26421 -8.07602,-8.65626 -10.12157,-13.20762 -0.79266,-1.76431 -1.26668,-3.40665 -1.81937,-6.12488 l -0.95001,-4.97818 -0.17701,-0.84773 c -0.86347,-4.03407 -1.90395,-6.51038 -3.55809,-8.19206 -3.01524,-3.06441 -10.33008,-2.21078 -12.11601,0.59203 -2.62382,4.11866 -3.31223,11.28597 -1.16439,18.55361 1.71316,5.7964 3.98491,11.50232 6.82312,17.11974 1.247,2.46648 0.24192,5.47187 -2.24422,6.70904 -2.48613,1.23913 -5.51121,0.24193 -6.75624,-2.22455 -3.10374,-6.14651 -5.59971,-12.40906 -7.48399,-18.78569 -2.92082,-9.88752 -1.94918,-20.01697 2.31895,-26.7142 5.22994,-8.20781 20.23137,-9.9603 27.82943,-2.23439 m -12.59985,10.70378 c 2.7792,-0.0924 5.10603,2.08686 5.19847,4.8641 a 38.643346,38.643346 0 0 0 7.04144,20.98665 l 0.95787,1.3001 1.51057,1.96492 c 1.69545,2.2029 1.28437,5.36369 -0.91853,7.06111 -2.03376,1.56563 -4.88377,1.33551 -6.64414,-0.44255 l -0.41697,-0.47599 -1.51057,-1.96295 a 48.727554,48.727554 0 0 1 -10.08421,-28.09298 c -0.0924,-2.78117 2.08687,-5.10997 4.86607,-5.20241 m -19.63343,-24.72962 c 11.08143,-8.20387 25.55375,-7.75935 35.32719,-1.47909 4.8405,3.11161 8.52643,6.76017 10.98897,10.96144 1.40632,2.39762 0.60187,5.48366 -1.79773,6.88998 -2.39763,1.40633 -5.48367,0.60188 -6.88999,-1.79772 -1.61481,-2.75364 -4.17373,-5.28699 -7.74755,-7.58431 -6.44351,-4.14225 -16.39593,-4.44712 -23.88976,1.10146 -7.85179,5.81411 -11.18173,15.84324 -10.18451,26.47031 0.56449,6.01669 2.38189,12.11206 5.47776,18.30381 1.24307,2.48614 0.23603,5.51121 -2.25208,6.75428 -2.48614,1.24307 -5.5112,0.23602 -6.75428,-2.25208 -3.63873,-7.27354 -5.81214,-14.56871 -6.49661,-21.86781 -1.29814,-13.83702 3.18045,-27.32787 14.21859,-35.50027 m 53.23369,25.97663 c 0.14555,2.82248 0.83002,5.08832 2.01605,6.88802 1.11719,1.69349 2.00819,2.49598 2.45664,2.63169 2.66119,0.80446 4.16586,3.61513 3.3614,6.27632 -0.80445,2.6612 -3.61513,4.16586 -6.27632,3.3614 -3.08014,-0.9323 -5.65872,-3.24929 -7.95014,-6.7287 -2.22258,-3.37321 -3.43024,-7.37188 -3.66431,-11.91145 -0.14358,-2.77723 1.99246,-5.14339 4.7697,-5.28698 2.77724,-0.14358 5.14339,1.99246 5.28698,4.7697 m -43.71004,-42.26438 c 1.14079,2.53531 0.0118,5.5171 -2.52547,6.65789 -9.02996,4.06555 -15.64459,9.83049 -19.98747,17.34791 -5.45023,9.43711 -6.92539,20.51066 -5.70396,29.81794 0.36191,2.75757 -1.5794,5.28502 -4.33698,5.64693 -2.75757,0.36191 -5.28501,-1.57941 -5.64692,-4.33699 -1.48696,-11.33317 0.27733,-24.58209 6.96867,-36.16506 5.43253,-9.40564 13.6718,-16.5887 24.57423,-21.4941 2.53729,-1.14079 5.51711,-0.01 6.6579,2.52548 m 12.40316,-5.19454 c 9.54135,0.19472 18.98632,4.5553 28.29361,12.83588 9.41153,8.37498 15.0801,19.75144 16.9978,33.90119 0.37371,2.7556 -1.55777,5.29288 -4.31337,5.66463 -2.7556,0.3737 -5.29288,-1.55778 -5.66462,-4.31338 -1.60498,-11.8544 -6.17405,-21.02205 -13.71114,-27.72912 -7.64331,-6.80148 -14.89914,-10.15108 -21.80683,-10.29269 -2.77921,-0.0571 -4.98802,-2.35633 -4.93098,-5.1375 0.0551,-2.77921 2.35436,-4.98605 5.13553,-4.92901 m -36.84364,1.15849 c 1.84887,2.07703 1.66594,5.25945 -0.41108,7.10832 -1.31191,1.16833 -2.69266,2.56875 -4.14029,4.19929 -1.32961,1.50073 -2.7084,3.46762 -4.11275,5.89868 -1.39059,2.40747 -4.47073,3.23159 -6.8782,1.84101 -2.40747,-1.39059 -3.23158,-4.47073 -1.841,-6.87819 1.72299,-2.98376 3.48335,-5.49941 5.29879,-7.54496 1.69938,-1.91575 3.3555,-3.5935 4.97621,-5.03719 2.07703,-1.8469 5.25945,-1.66398 7.10832,0.41304 m 34.66827,-15.782265 c 11.28794,0.529092 21.75569,2.997525 29.52488,8.996525 2.20094,1.69938 2.60809,4.86213 0.9087,7.06307 -1.69939,2.20095 -4.86017,2.60809 -7.06308,0.90674 -6.05603,-4.67528 -14.53526,-6.47105 -23.84058,-6.9077 -9.34269,-0.43861 -16.9447,1.22144 -22.91418,4.88771 -2.3701,1.45549 -5.4699,0.71398 -6.9254,-1.65415 -1.4555,-2.37009 -0.71398,-5.4699 1.65415,-6.92539 7.81442,-4.799199 17.40494,-6.893927 28.65551,-6.366805"
         style="fill:#9266cc;stroke-width:0.196688"
         id="path11" />
    </g>
  </g>
</svg>
