<?xml version="1.0" encoding="UTF-8" standalone="no"?>
<!-- Created with Inkscape (http://www.inkscape.org/) -->

<svg
   width="1024"
   height="512"
   viewBox="0 0 270.93333 135.46667"
   version="1.1"
   id="svg1"
   inkscape:version="1.4.3 (0d15f75042, 2025-12-25)"
   sodipodi:docname="lagid_full.svg"
   xmlns:inkscape="http://www.inkscape.org/namespaces/inkscape"
   xmlns:sodipodi="http://sodipodi.sourceforge.net/DTD/sodipodi-0.dtd"
   xmlns="http://www.w3.org/2000/svg"
   xmlns:svg="http://www.w3.org/2000/svg">
  <sodipodi:namedview
     id="namedview1"
     pagecolor="#ffffff"
     bordercolor="#000000"
     borderopacity="0.25"
     inkscape:showpageshadow="2"
     inkscape:pageopacity="0.0"
     inkscape:pagecheckerboard="0"
     inkscape:deskcolor="#d1d1d1"
     inkscape:document-units="mm"
     inkscape:zoom="0.72070006"
     inkscape:cx="396.83638"
     inkscape:cy="561.25984"
     inkscape:window-width="1920"
     inkscape:window-height="1012"
     inkscape:window-x="0"
     inkscape:window-y="0"
     inkscape:window-maximized="1"
     inkscape:current-layer="layer1" />
  <defs
     id="defs1" />
  <g
     inkscape:label="Capa 1"
     inkscape:groupmode="layer"
     id="layer1">
    <g
       id="g11"
       transform="translate(-293.69592,-118.21259)"
       inkscape:export-filename="../../lagid_full.png"
       inkscape:export-xdpi="96"
       inkscape:export-ydpi="96">
      <rect
         style="fill:none;stroke:none;stroke-width:0;stroke-linecap:square"
         id="rect10"
         width="270.93332"
         height="135.46666"
         x="293.69592"
         y="118.21259"
         ry="0" />
      <g
         id="g10"
         transform="matrix(0.64374016,0,0,0.64374016,150.71692,173.5147)">
        <path
           d="m 452.84119,-2.797331 c 4.04019,4.108979 6.29973,9.022288 7.91633,15.737417 l 0.77788,3.5851 0.64823,3.45017 c 0.83873,4.52173 1.34408,6.58283 2.08491,8.23383 1.9341,4.302131 5.37633,8.765651 10.40077,13.335001 2.75696,2.50825 2.94217,6.76275 0.41275,9.50119 -2.52942,2.73844 -6.81302,2.92365 -9.56998,0.4154 -6.30237,-5.73617 -10.86379,-11.64432 -13.61545,-17.76677 -1.06627,-2.37332 -1.70392,-4.58259 -2.4474,-8.239131 l -1.27794,-6.6966 -0.23812,-1.14036 c -1.16152,-5.426599 -2.56117,-8.7577093 -4.78631,-11.019889 -4.05607,-4.12221 -13.89592,-2.97392 -16.29834,0.79639 -3.52954,5.54038 -4.45558,15.181789 -1.56633,24.95815 2.30452,7.79727 5.36046,15.47283 9.1784,23.02933 1.67745,3.31788 0.32543,7.36071 -3.0189,9.02494 -3.34433,1.66687 -7.41363,0.32544 -9.08844,-2.99244 -4.17512,-8.26823 -7.53268,-16.69256 -10.06739,-25.27035 -3.92907,-13.300611 -2.62202,-26.9266503 3.11943,-35.93571101 7.03527,-11.04106299 27.21505,-13.39849999 37.4359,-3.00566699 m -16.94921,14.398628 c 3.73856,-0.12436 6.86859,2.807229 6.99294,6.543139 a 51.982687,51.982687 0 0 0 9.47208,28.231051 l 1.28852,1.74889 2.032,2.64319 c 2.28071,2.96333 1.72773,7.21519 -1.2356,9.49854 -2.73579,2.10608 -6.5696,1.79652 -8.93763,-0.59531 l -0.56091,-0.64029 -2.032,-2.64055 A 65.547875,65.547875 0 0 1 429.34619,18.599526 c -0.12435,-3.74121 2.80723,-6.873879 6.54579,-6.998229 m -26.41071,-33.266065 c 14.90663,-11.035771 34.37467,-10.437813 47.52182,-1.989667 6.51139,4.185708 11.46968,9.093729 14.78226,14.7452292 1.89177,3.2252708 0.80963,7.3765838 -2.41829,9.26835379 -3.22527,1.89176901 -7.37658,0.80962501 -9.26835,-2.41829099 -2.17223,-3.704167 -5.61446,-7.1119998 -10.42194,-10.202334 -8.66775,-5.572125 -22.05566,-5.982229 -32.13629,1.481667 -10.56216,7.821083 -15.04156,21.312187 -13.70012,35.607626 0.75935,8.093601 3.2041,16.293041 7.36864,24.622121 1.67217,3.34434 0.3175,7.41363 -3.02948,9.0858 -3.34433,1.67216 -7.41362,0.3175 -9.08579,-3.02948 -4.89479,-9.7843 -7.81844,-19.59769 -8.73919,-29.416381 -1.74625,-18.613439 4.27832,-36.761207 19.12673,-47.754644 m 71.60948,34.943524 c 0.19579,3.79677 1.11654,6.84477 2.71198,9.2657 1.50283,2.27807 2.70139,3.35757 3.30464,3.54013 3.57982,1.08215 5.60388,4.863041 4.52173,8.442851 -1.08214,3.57982 -4.86304,5.60388 -8.44285,4.52173 -4.14338,-1.25412 -7.61206,-4.37091 -10.69446,-9.05139 -2.98979,-4.537611 -4.61433,-9.916591 -4.92919,-16.023171 -0.19314,-3.735919 2.68023,-6.918849 6.41615,-7.111999 3.73592,-0.19315 6.91885,2.6802297 7.112,6.416149 m -58.79835,-56.85367 c 1.53458,3.410479 0.0159,7.421562 -3.39725,8.956146 -12.14702,5.468937 -21.04496,13.223875 -26.88696,23.33625 -7.3316,12.694708 -9.31598,27.590754 -7.67292,40.110835 0.48684,3.70946 -2.1246,7.10935 -5.83406,7.59619 -3.70946,0.48683 -7.10936,-2.12461 -7.59619,-5.83407 -2.00025,-15.245291 0.37306,-33.067622 9.37419,-48.648934 7.30779,-12.652375 18.39119,-22.314959 33.05704,-28.913667 3.41313,-1.534583 7.42156,-0.01323 8.95615,3.39725 m 16.68462,-6.987646 c 12.83494,0.261938 25.54023,6.12775 38.06031,17.266708 12.66031,11.265959 20.28561,26.569459 22.86529,45.603589 0.50271,3.706809 -2.0955,7.119929 -5.80231,7.619999 -3.70681,0.5027 -7.11994,-2.0955 -7.62,-5.80232 -2.159,-15.946434 -8.30527,-28.278663 -18.4441,-37.300955 -10.28171,-9.149292 -20.04219,-13.655146 -29.33435,-13.845646 -3.73857,-0.07673 -6.70984,-3.169708 -6.63311,-6.910917 0.0741,-3.738562 3.16706,-6.707187 6.90827,-6.630458 m -49.56175,1.558396 c 2.48709,2.794 2.24102,7.074958 -0.55298,9.562042 -1.76477,1.571625 -3.62214,3.455458 -5.56948,5.648854 -1.78858,2.018771 -3.64331,4.664604 -5.53244,7.934854 -1.8706,3.2385 -6.01398,4.347104 -9.25248,2.4765 -3.2385,-1.870604 -4.3471,-6.013979 -2.4765,-9.252479 2.31775,-4.013729 4.68578,-7.39775 7.12788,-10.149417 2.286,-2.577041 4.51379,-4.833937 6.69396,-6.775979 2.794,-2.484434 7.07496,-2.238374 9.56204,0.555625 m 46.63546,-21.230169 c 15.18444,0.71173 29.26556,4.03225 39.7166,12.10204 2.96069,2.286 3.50838,6.5405 1.22238,9.501191 -2.286,2.960688 -6.53786,3.508375 -9.50119,1.21973 -8.14652,-6.289141 -19.5527,-8.704791 -32.07014,-9.292171 -12.56771,-0.59002 -22.79386,1.64307 -30.82396,6.5749 -3.18823,1.957916 -7.35806,0.960437 -9.31598,-2.22515 -1.95792,-3.18822 -0.96044,-7.35806 2.22515,-9.31597 10.51189,-6.45584 23.41297,-9.27365 38.54714,-8.56457"
           style="fill:#9266cc;stroke-width:0.264583"
           id="path1-5" />
        <g
           style="fill:#ffffff"
           id="g9"
           transform="matrix(0.41341145,0,0,0.41341145,303.9775,-15.571034)">
          <g
             id="g7"
             style="fill:#ffffff">

<g
   id="g6"
   style="fill:#ffffff">



<text
   xml:space="preserve"
   style="font-style:normal;font-variant:normal;font-weight:850;font-stretch:normal;font-size:122.88px;font-family:Uniwars;-inkscape-font-specification:'Uniwars weight=850';text-align:center;writing-mode:lr-tb;direction:ltr;text-anchor:middle;fill:#ffffff;stroke:none;stroke-width:0;stroke-linecap:square;stroke-opacity:1"
   x="310.7424"
   y="301.23508"
   id="text2"><tspan
     sodipodi:role="line"
     id="tspan1"
     style="font-style:normal;font-variant:normal;font-weight:850;font-stretch:normal;font-family:Uniwars;-inkscape-font-specification:'Uniwars weight=850';fill:#ffffff;stroke:none;stroke-width:0;stroke-opacity:1"
     x="310.7424"
     y="301.23508">LAG-ID</tspan></text>
</g>


</g>
          <g
             id="g8"
             style="fill:#ffffff" />
        </g>
      </g>
    </g>
  </g>
</svg>
