<?xml version="1.0" encoding="UTF-8" standalone="no"?>
<!-- Created with Inkscape (http://www.inkscape.org/) -->

<svg
   width="50"
   height="50"
   viewBox="0 0 13.229166 13.229167"
   version="1.1"
   id="svg5"
   xml:space="preserve"
   inkscape:version="1.2.2 (732a01da63, 2022-12-09)"
   sodipodi:docname="tray.svg"
   xmlns:inkscape="http://www.inkscape.org/namespaces/inkscape"
   xmlns:sodipodi="http://sodipodi.sourceforge.net/DTD/sodipodi-0.dtd"
   xmlns="http://www.w3.org/2000/svg"
   xmlns:svg="http://www.w3.org/2000/svg"><sodipodi:namedview
     id="namedview7"
     pagecolor="#ffffff"
     bordercolor="#000000"
     borderopacity="0.25"
     inkscape:showpageshadow="2"
     inkscape:pageopacity="0.0"
     inkscape:pagecheckerboard="0"
     inkscape:deskcolor="#d1d1d1"
     inkscape:document-units="mm"
     showgrid="false"
     inkscape:zoom="4.1776837"
     inkscape:cx="147.92886"
     inkscape:cy="45.719114"
     inkscape:window-width="1920"
     inkscape:window-height="1009"
     inkscape:window-x="-8"
     inkscape:window-y="-8"
     inkscape:window-maximized="1"
     inkscape:current-layer="layer1" /><defs
     id="defs2"><filter
       inkscape:collect="always"
       style="color-interpolation-filters:sRGB"
       id="filter860"
       x="-0.076658626"
       y="-0.058115639"
       width="1.1533173"
       height="1.1162313"><feGaussianBlur
         inkscape:collect="always"
         stdDeviation="0.32034035"
         id="feGaussianBlur862" /></filter></defs><g
     inkscape:label="Capa 1"
     inkscape:groupmode="layer"
     id="layer1"><g
       id="g926"
       transform="matrix(0.84887024,0,0,0.84887024,-339.85272,-11.100337)"
       inkscape:export-filename="tray_white.png"
       inkscape:export-xdpi="96"
       inkscape:export-ydpi="96"><rect
         style="fill:none;stroke:none;stroke-width:8.46667;stroke-linecap:round;stroke-linejoin:bevel;stroke-dashoffset:87.6741;paint-order:markers fill stroke"
         id="rect920"
         width="15.584439"
         height="15.584439"
         x="400.35886"
         y="13.0766" /><g
         id="g866"
         transform="translate(-1.3078191,0.60659659)"><path
           style="fill:#1a1a1a;stroke-width:0.0132848;filter:url(#filter860)"
           d="m 404.60499,26.849395 c -0.0691,-0.03131 -0.11426,-0.0702 -0.14075,-0.121108 -0.0259,-0.04986 -0.0268,-0.677566 -0.001,-0.776782 0.0435,-0.1678 0.18053,-0.29371 0.35132,-0.322855 0.0662,-0.01131 1.04772,-0.01419 3.78923,-0.01112 l 3.69983,0.0041 0.0793,0.03283 c 0.0981,0.04062 0.16632,0.109254 0.22288,0.224077 l 0.0433,0.08783 0.004,0.355733 c 0.003,0.311091 0.001,0.361638 -0.0184,0.4028 -0.0239,0.05035 -0.10314,0.111646 -0.17681,0.136757 -0.0338,0.01153 -1.01709,0.01532 -3.91903,0.0151 -3.87056,-3.01e-4 -3.87392,-3.01e-4 -3.93366,-0.02739 z m 0.89009,-5.292866 v -3.540383 l 0.083,0.06118 c 0.0889,0.06551 0.25276,0.159774 0.3288,0.189146 0.37192,0.143668 0.61071,0.180843 0.91665,0.142702 0.20402,-0.02543 0.28137,-0.04522 0.47294,-0.120989 0.17503,-0.06923 0.24776,-0.110063 0.41018,-0.230313 0.39575,-0.292998 0.68336,-0.760931 0.78504,-1.277274 0.0122,-0.06211 0.024,-0.11489 0.0261,-0.117296 0.002,-0.0024 0.0106,0.03047 0.0189,0.07307 0.0164,0.08457 0.0741,0.287466 0.0938,0.329853 0.007,0.01461 0.0239,0.0568 0.0381,0.09375 0.087,0.227185 0.31825,0.549899 0.51147,0.71382 0.29193,0.247661 0.57995,0.384534 0.94012,0.446764 0.43639,0.0754 0.91183,-0.03288 1.30828,-0.297948 0.0709,-0.04743 0.13096,-0.08623 0.13338,-0.08623 0.002,0 0.004,0.46032 0.004,1.022933 v 1.022933 l 0.27566,4.02e-4 c 0.15162,2.51e-4 0.31983,0.0061 0.37381,0.01315 0.244,0.03167 0.45349,0.207986 0.53635,0.451409 0.0292,0.08571 0.0294,0.09461 0.0364,1.202278 0.007,1.052784 0.008,1.119685 0.0322,1.182351 0.0508,0.134252 0.15137,0.25626 0.25586,0.310418 0.0721,0.03735 0.19984,0.05534 0.29608,0.04169 0.21998,-0.0312 0.3684,-0.168566 0.42617,-0.394441 0.0249,-0.09737 0.0259,-0.156077 0.0259,-1.474707 V 19.9415 l -0.0337,-0.06644 c -0.0356,-0.07023 -0.10836,-0.126594 -0.23578,-0.182612 -0.0984,-0.04324 -0.27611,-0.165388 -0.33733,-0.231803 -0.11433,-0.124035 -0.2022,-0.363828 -0.23142,-0.631485 -0.0185,-0.169781 -0.008,-0.540992 0.0208,-0.753299 0.0278,-0.202781 0.0259,-0.240665 -0.0163,-0.327123 -0.028,-0.05723 -0.0814,-0.117842 -0.22839,-0.259054 -0.31034,-0.298127 -0.40901,-0.40746 -0.42666,-0.472777 -0.038,-0.14074 0.0174,-0.290722 0.13868,-0.375202 0.0642,-0.04469 0.0878,-0.05329 0.15809,-0.05762 0.13756,-0.0085 0.1537,0.0044 0.80934,0.64774 0.82254,0.80705 0.83403,0.81889 0.89666,0.923748 0.0791,0.132373 0.10815,0.215625 0.12424,0.355621 0.01,0.08314 0.0126,0.804991 0.01,2.241566 -0.005,2.341608 0.002,2.156198 -0.0897,2.377987 -0.0824,0.199371 -0.21859,0.384572 -0.37885,0.515286 -0.10979,0.08955 -0.17942,0.127255 -0.31884,0.172638 -0.1796,0.05847 -0.28276,0.07385 -0.44331,0.06613 -0.18231,-0.0088 -0.39596,-0.0762 -0.538,-0.169787 -0.0858,-0.05651 -0.31396,-0.269861 -0.31396,-0.293539 0,-0.0053 -0.0142,-0.0266 -0.0315,-0.04726 -0.0909,-0.108281 -0.19598,-0.383341 -0.22022,-0.576698 -0.009,-0.06838 -0.0139,-0.48272 -0.0139,-1.07731 0,-0.689799 -0.004,-0.975619 -0.015,-0.999136 -0.0247,-0.0543 -0.0672,-0.06227 -0.31071,-0.05832 l -0.2256,0.0037 -0.003,2.215318 -0.003,2.215317 -1.21221,-0.0034 -1.2122,-0.0034 -0.003,-1.031734 -0.003,-1.031734 0.47834,0.0027 c 0.26308,0.0015 0.47833,0.0011 0.47833,-9.19e-4 0,-0.002 -0.038,-0.05602 -0.0844,-0.120088 -0.0464,-0.06407 -0.17895,-0.248011 -0.29447,-0.408757 -0.11553,-0.160747 -0.24982,-0.34607 -0.29842,-0.41183 -0.0486,-0.06576 -0.11628,-0.158422 -0.1504,-0.205915 -0.0341,-0.04749 -0.1595,-0.220861 -0.27862,-0.385261 -0.11913,-0.1644 -0.23671,-0.3288 -0.26129,-0.365333 -0.0508,-0.07556 -0.18842,-0.259054 -0.19423,-0.259054 -0.0115,0 -0.21063,0.2733 -0.59663,0.818861 -0.051,0.07205 -0.17353,0.242352 -0.27234,0.378441 -0.0988,0.13609 -0.2391,0.330381 -0.31177,0.431758 -0.0727,0.101376 -0.18625,0.257764 -0.25241,0.34753 -0.0662,0.08977 -0.12229,0.168977 -0.12472,0.176024 -0.003,0.0081 0.17052,0.01281 0.46829,0.01281 h 0.47272 v 1.029575 1.029576 h -1.20892 -1.20892 v -3.540383 z m 3.22872,-1.686556 c 0.42357,-0.05363 0.77731,-0.225729 1.07359,-0.522321 0.0756,-0.07571 0.13914,-0.135775 0.14113,-0.133471 0.0133,0.01545 0.0477,0.09738 0.0723,0.172564 0.0353,0.107288 0.0553,0.128255 0.0999,0.104392 0.0368,-0.01971 0.0914,-0.11504 0.11357,-0.19842 0.0204,-0.07667 0.0205,-0.24479 2e-4,-0.320044 -0.037,-0.137145 -0.12646,-0.245587 -0.25039,-0.303498 -0.0662,-0.03092 -0.0918,-0.03512 -0.21463,-0.03522 -0.1263,-1.01e-4 -0.14672,0.0034 -0.21594,0.03741 -0.0892,0.04379 -0.11554,0.07925 -0.0844,0.113679 0.0113,0.01254 0.0626,0.04641 0.11394,0.07528 0.0513,0.02887 0.0933,0.05867 0.0934,0.06623 0,0.02436 -0.13636,0.147349 -0.24956,0.224991 -0.17511,0.120104 -0.46854,0.250483 -0.6716,0.298405 -0.12951,0.03056 -0.33801,0.05356 -0.487,0.0537 -0.21104,2.01e-4 -0.37499,-0.02734 -0.70231,-0.11798 -0.11609,-0.03215 -0.15524,-0.03828 -0.16938,-0.02654 -0.0285,0.02363 -0.0234,0.03485 0.0514,0.114072 0.16626,0.176164 0.49391,0.332863 0.80041,0.382799 0.2326,0.0379 0.28463,0.03939 0.4854,0.01397 z m -2.36776,-1.892575 c -0.14791,-0.03223 -0.19277,-0.04712 -0.32457,-0.107706 -0.34109,-0.156787 -0.62958,-0.462043 -0.77817,-0.823395 -0.0945,-0.229911 -0.11916,-0.348814 -0.12651,-0.611169 -0.007,-0.262961 0.008,-0.379763 0.0782,-0.588955 0.0494,-0.147341 0.15238,-0.360491 0.21291,-0.440554 0.26119,-0.345477 0.52394,-0.521734 0.92074,-0.617653 0.0365,-0.0088 0.14414,-0.01876 0.23912,-0.02207 0.14896,-0.0052 0.1928,-0.0015 0.31884,0.02651 0.21221,0.04723 0.23836,0.05519 0.31549,0.09597 0.0384,0.02029 0.0874,0.04586 0.10894,0.05683 0.13913,0.07083 0.35154,0.259077 0.47453,0.420552 0.12248,0.160809 0.24484,0.425659 0.29153,0.63103 0.028,0.123026 0.0316,0.17007 0.0303,0.398546 -10e-4,0.217179 -0.006,0.278157 -0.0302,0.377232 -0.0961,0.394405 -0.33875,0.756518 -0.65251,0.973735 -0.11263,0.07797 -0.32474,0.173083 -0.47162,0.211477 -0.18213,0.04761 -0.44027,0.05595 -0.60701,0.01961 z m 0.955,-1.002928 c 0.19545,-0.05204 0.35154,-0.209004 0.40984,-0.412132 0.033,-0.114891 0.0213,-0.319639 -0.0238,-0.419251 l -0.033,-0.07291 -0.01,0.04491 c -0.0126,0.0575 -0.10222,0.155004 -0.15993,0.174051 -0.0809,0.02671 -0.18943,-0.0076 -0.24945,-0.07897 -0.0993,-0.117995 -0.0689,-0.287308 0.0669,-0.373471 l 0.0582,-0.03694 -0.0768,-0.01594 c -0.24045,-0.04992 -0.47784,0.04582 -0.61771,0.249117 -0.136,0.197664 -0.13631,0.539678 -6.5e-4,0.711016 0.0416,0.05252 0.11514,0.124599 0.16208,0.158823 0.11258,0.08209 0.31832,0.113198 0.47419,0.0717 z m 2.91344,0.94046 c -0.12422,-0.02369 -0.23448,-0.04991 -0.24577,-0.05844 -0.007,-0.0055 -0.0342,-0.0143 -0.0598,-0.0195 -0.0256,-0.0052 -0.0957,-0.03537 -0.15586,-0.06703 -0.55636,-0.292874 -0.89265,-0.882965 -0.86288,-1.514108 0.0122,-0.259451 0.0538,-0.426512 0.16031,-0.644012 0.14003,-0.286043 0.32981,-0.501012 0.59531,-0.674328 0.17646,-0.115197 0.37473,-0.17926 0.63599,-0.205501 0.13391,-0.01345 0.17319,-0.01236 0.30555,0.0085 0.36044,0.05679 0.63923,0.201877 0.87684,0.45631 0.18956,0.202978 0.31885,0.442597 0.39221,0.726912 0.0468,0.18126 0.0592,0.512878 0.0259,0.690811 -0.0723,0.386313 -0.27419,0.732675 -0.56214,0.964314 -0.21327,0.171566 -0.37041,0.24721 -0.64738,0.311621 -0.0906,0.02107 -0.39181,0.03714 -0.45833,0.02446 z m -0.29695,-0.960738 c 0.16979,-0.0322 0.30767,-0.121046 0.40309,-0.259744 0.0955,-0.138766 0.12364,-0.379082 0.0642,-0.548199 -0.016,-0.04567 -0.0325,-0.08279 -0.0367,-0.08249 -0.004,3.01e-4 -0.0214,0.03021 -0.0384,0.06647 -0.0515,0.109725 -0.17722,0.160885 -0.29037,0.118131 -0.0797,-0.03013 -0.16361,-0.144165 -0.16361,-0.222485 0,-0.09014 0.0567,-0.181762 0.1392,-0.224806 l 0.0396,-0.02065 -0.0329,-0.01344 c -0.0181,-0.0074 -0.09,-0.01394 -0.1597,-0.01455 -0.11735,-10e-4 -0.1333,0.0021 -0.21455,0.0421 -0.26868,0.132272 -0.40841,0.428386 -0.3353,0.710545 0.0306,0.11798 0.068,0.189142 0.14234,0.270457 0.0784,0.08579 0.15642,0.134236 0.26724,0.165963 0.0956,0.02737 0.12836,0.0293 0.21587,0.0127 z m -4.56388,-2.315651 c -0.0405,-0.109369 0.21876,-0.470708 0.47683,-0.664685 0.35973,-0.270381 0.82564,-0.366505 1.21289,-0.250238 0.19835,0.05955 0.25873,0.118894 0.27066,0.265998 0.007,0.08572 -0.0189,0.148254 -0.0796,0.192853 -0.0481,0.03529 -0.16304,0.03644 -0.34778,0.0035 -0.1691,-0.03017 -0.43853,-0.03085 -0.58451,-0.0015 -0.28203,0.05677 -0.52348,0.171692 -0.75835,0.360945 -0.0839,0.06759 -0.1585,0.122885 -0.16581,0.122885 -0.007,0 -0.0183,-0.0134 -0.0243,-0.02977 z m 6.14946,-0.0962 c -0.0626,-0.04715 -0.28822,-0.200803 -0.3454,-0.235178 -0.13644,-0.08202 -0.4303,-0.157595 -0.69199,-0.177959 -0.12254,-0.0095 -0.34137,0.01008 -0.46571,0.04175 -0.1021,0.02601 -0.20372,0.02435 -0.25509,-0.0041 -0.0944,-0.0524 -0.12238,-0.117995 -0.10039,-0.235691 0.0157,-0.08404 0.0388,-0.117554 0.10961,-0.159056 0.15207,-0.08912 0.36231,-0.133129 0.58758,-0.122998 0.34102,0.01534 0.63707,0.138346 0.9241,0.383962 0.2106,0.180214 0.42257,0.541523 0.32364,0.551655 -0.0146,0.0015 -0.0535,-0.01756 -0.0863,-0.04234 z"
           id="path304" /><path
           style="fill:#ffffff;stroke-width:0.0132848"
           d="m 404.60499,26.849395 c -0.0691,-0.03131 -0.11426,-0.0702 -0.14075,-0.121108 -0.0259,-0.04986 -0.0268,-0.677566 -0.001,-0.776782 0.0435,-0.1678 0.18053,-0.29371 0.35132,-0.322855 0.0662,-0.01131 1.04772,-0.01419 3.78923,-0.01112 l 3.69983,0.0041 0.0793,0.03283 c 0.0981,0.04062 0.16632,0.109254 0.22288,0.224077 l 0.0433,0.08783 0.004,0.355733 c 0.003,0.311091 0.001,0.361638 -0.0184,0.4028 -0.0239,0.05035 -0.10314,0.111646 -0.17681,0.136757 -0.0338,0.01153 -1.01709,0.01532 -3.91903,0.0151 -3.87056,-3.01e-4 -3.87392,-3.01e-4 -3.93366,-0.02739 z m 0.89009,-5.292866 v -3.540383 l 0.083,0.06118 c 0.0889,0.06551 0.25276,0.159774 0.3288,0.189146 0.37192,0.143668 0.61071,0.180843 0.91665,0.142702 0.20402,-0.02543 0.28137,-0.04522 0.47294,-0.120989 0.17503,-0.06923 0.24776,-0.110063 0.41018,-0.230313 0.39575,-0.292998 0.68336,-0.760931 0.78504,-1.277274 0.0122,-0.06211 0.024,-0.11489 0.0261,-0.117296 0.002,-0.0024 0.0106,0.03047 0.0189,0.07307 0.0164,0.08457 0.0741,0.287466 0.0938,0.329853 0.007,0.01461 0.0239,0.0568 0.0381,0.09375 0.087,0.227185 0.31825,0.549899 0.51147,0.71382 0.29193,0.247661 0.57995,0.384534 0.94012,0.446764 0.43639,0.0754 0.91183,-0.03288 1.30828,-0.297948 0.0709,-0.04743 0.13096,-0.08623 0.13338,-0.08623 0.002,0 0.004,0.46032 0.004,1.022933 v 1.022933 l 0.27566,4.02e-4 c 0.15162,2.51e-4 0.31983,0.0061 0.37381,0.01315 0.244,0.03167 0.45349,0.207986 0.53635,0.451409 0.0292,0.08571 0.0294,0.09461 0.0364,1.202278 0.007,1.052784 0.008,1.119685 0.0322,1.182351 0.0508,0.134252 0.15137,0.25626 0.25586,0.310418 0.0721,0.03735 0.19984,0.05534 0.29608,0.04169 0.21998,-0.0312 0.3684,-0.168566 0.42617,-0.394441 0.0249,-0.09737 0.0259,-0.156077 0.0259,-1.474707 V 19.9415 l -0.0337,-0.06644 c -0.0356,-0.07023 -0.10836,-0.126594 -0.23578,-0.182612 -0.0984,-0.04324 -0.27611,-0.165388 -0.33733,-0.231803 -0.11433,-0.124035 -0.2022,-0.363828 -0.23142,-0.631485 -0.0185,-0.169781 -0.008,-0.540992 0.0208,-0.753299 0.0278,-0.202781 0.0259,-0.240665 -0.0163,-0.327123 -0.028,-0.05723 -0.0814,-0.117842 -0.22839,-0.259054 -0.31034,-0.298127 -0.40901,-0.40746 -0.42666,-0.472777 -0.038,-0.14074 0.0174,-0.290722 0.13868,-0.375202 0.0642,-0.04469 0.0878,-0.05329 0.15809,-0.05762 0.13756,-0.0085 0.1537,0.0044 0.80934,0.64774 0.82254,0.80705 0.83403,0.81889 0.89666,0.923748 0.0791,0.132373 0.10815,0.215625 0.12424,0.355621 0.01,0.08314 0.0126,0.804991 0.01,2.241566 -0.005,2.341608 0.002,2.156198 -0.0897,2.377987 -0.0824,0.199371 -0.21859,0.384572 -0.37885,0.515286 -0.10979,0.08955 -0.17942,0.127255 -0.31884,0.172638 -0.1796,0.05847 -0.28276,0.07385 -0.44331,0.06613 -0.18231,-0.0088 -0.39596,-0.0762 -0.538,-0.169787 -0.0858,-0.05651 -0.31396,-0.269861 -0.31396,-0.293539 0,-0.0053 -0.0142,-0.0266 -0.0315,-0.04726 -0.0909,-0.108281 -0.19598,-0.383341 -0.22022,-0.576698 -0.009,-0.06838 -0.0139,-0.48272 -0.0139,-1.07731 0,-0.689799 -0.004,-0.975619 -0.015,-0.999136 -0.0247,-0.0543 -0.0672,-0.06227 -0.31071,-0.05832 l -0.2256,0.0037 -0.003,2.215318 -0.003,2.215317 -1.21221,-0.0034 -1.2122,-0.0034 -0.003,-1.031734 -0.003,-1.031734 0.47834,0.0027 c 0.26308,0.0015 0.47833,0.0011 0.47833,-9.19e-4 0,-0.002 -0.038,-0.05602 -0.0844,-0.120088 -0.0464,-0.06407 -0.17895,-0.248011 -0.29447,-0.408757 -0.11553,-0.160747 -0.24982,-0.34607 -0.29842,-0.41183 -0.0486,-0.06576 -0.11628,-0.158422 -0.1504,-0.205915 -0.0341,-0.04749 -0.1595,-0.220861 -0.27862,-0.385261 -0.11913,-0.1644 -0.23671,-0.3288 -0.26129,-0.365333 -0.0508,-0.07556 -0.18842,-0.259054 -0.19423,-0.259054 -0.0115,0 -0.21063,0.2733 -0.59663,0.818861 -0.051,0.07205 -0.17353,0.242352 -0.27234,0.378441 -0.0988,0.13609 -0.2391,0.330381 -0.31177,0.431758 -0.0727,0.101376 -0.18625,0.257764 -0.25241,0.34753 -0.0662,0.08977 -0.12229,0.168977 -0.12472,0.176024 -0.003,0.0081 0.17052,0.01281 0.46829,0.01281 h 0.47272 v 1.029575 1.029576 h -1.20892 -1.20892 v -3.540383 z m 3.22872,-1.686556 c 0.42357,-0.05363 0.77731,-0.225729 1.07359,-0.522321 0.0756,-0.07571 0.13914,-0.135775 0.14113,-0.133471 0.0133,0.01545 0.0477,0.09738 0.0723,0.172564 0.0353,0.107288 0.0553,0.128255 0.0999,0.104392 0.0368,-0.01971 0.0914,-0.11504 0.11357,-0.19842 0.0204,-0.07667 0.0205,-0.24479 2e-4,-0.320044 -0.037,-0.137145 -0.12646,-0.245587 -0.25039,-0.303498 -0.0662,-0.03092 -0.0918,-0.03512 -0.21463,-0.03522 -0.1263,-1.01e-4 -0.14672,0.0034 -0.21594,0.03741 -0.0892,0.04379 -0.11554,0.07925 -0.0844,0.113679 0.0113,0.01254 0.0626,0.04641 0.11394,0.07528 0.0513,0.02887 0.0933,0.05867 0.0934,0.06623 0,0.02436 -0.13636,0.147349 -0.24956,0.224991 -0.17511,0.120104 -0.46854,0.250483 -0.6716,0.298405 -0.12951,0.03056 -0.33801,0.05356 -0.487,0.0537 -0.21104,2.01e-4 -0.37499,-0.02734 -0.70231,-0.11798 -0.11609,-0.03215 -0.15524,-0.03828 -0.16938,-0.02654 -0.0285,0.02363 -0.0234,0.03485 0.0514,0.114072 0.16626,0.176164 0.49391,0.332863 0.80041,0.382799 0.2326,0.0379 0.28463,0.03939 0.4854,0.01397 z m -2.36776,-1.892575 c -0.14791,-0.03223 -0.19277,-0.04712 -0.32457,-0.107706 -0.34109,-0.156787 -0.62958,-0.462043 -0.77817,-0.823395 -0.0945,-0.229911 -0.11916,-0.348814 -0.12651,-0.611169 -0.007,-0.262961 0.008,-0.379763 0.0782,-0.588955 0.0494,-0.147341 0.15238,-0.360491 0.21291,-0.440554 0.26119,-0.345477 0.52394,-0.521734 0.92074,-0.617653 0.0365,-0.0088 0.14414,-0.01876 0.23912,-0.02207 0.14896,-0.0052 0.1928,-0.0015 0.31884,0.02651 0.21221,0.04723 0.23836,0.05519 0.31549,0.09597 0.0384,0.02029 0.0874,0.04586 0.10894,0.05683 0.13913,0.07083 0.35154,0.259077 0.47453,0.420552 0.12248,0.160809 0.24484,0.425659 0.29153,0.63103 0.028,0.123026 0.0316,0.17007 0.0303,0.398546 -10e-4,0.217179 -0.006,0.278157 -0.0302,0.377232 -0.0961,0.394405 -0.33875,0.756518 -0.65251,0.973735 -0.11263,0.07797 -0.32474,0.173083 -0.47162,0.211477 -0.18213,0.04761 -0.44027,0.05595 -0.60701,0.01961 z m 0.955,-1.002928 c 0.19545,-0.05204 0.35154,-0.209004 0.40984,-0.412132 0.033,-0.114891 0.0213,-0.319639 -0.0238,-0.419251 l -0.033,-0.07291 -0.01,0.04491 c -0.0126,0.0575 -0.10222,0.155004 -0.15993,0.174051 -0.0809,0.02671 -0.18943,-0.0076 -0.24945,-0.07897 -0.0993,-0.117995 -0.0689,-0.287308 0.0669,-0.373471 l 0.0582,-0.03694 -0.0768,-0.01594 c -0.24045,-0.04992 -0.47784,0.04582 -0.61771,0.249117 -0.136,0.197664 -0.13631,0.539678 -6.5e-4,0.711016 0.0416,0.05252 0.11514,0.124599 0.16208,0.158823 0.11258,0.08209 0.31832,0.113198 0.47419,0.0717 z m 2.91344,0.94046 c -0.12422,-0.02369 -0.23448,-0.04991 -0.24577,-0.05844 -0.007,-0.0055 -0.0342,-0.0143 -0.0598,-0.0195 -0.0256,-0.0052 -0.0957,-0.03537 -0.15586,-0.06703 -0.55636,-0.292874 -0.89265,-0.882965 -0.86288,-1.514108 0.0122,-0.259451 0.0538,-0.426512 0.16031,-0.644012 0.14003,-0.286043 0.32981,-0.501012 0.59531,-0.674328 0.17646,-0.115197 0.37473,-0.17926 0.63599,-0.205501 0.13391,-0.01345 0.17319,-0.01236 0.30555,0.0085 0.36044,0.05679 0.63923,0.201877 0.87684,0.45631 0.18956,0.202978 0.31885,0.442597 0.39221,0.726912 0.0468,0.18126 0.0592,0.512878 0.0259,0.690811 -0.0723,0.386313 -0.27419,0.732675 -0.56214,0.964314 -0.21327,0.171566 -0.37041,0.24721 -0.64738,0.311621 -0.0906,0.02107 -0.39181,0.03714 -0.45833,0.02446 z m -0.29695,-0.960738 c 0.16979,-0.0322 0.30767,-0.121046 0.40309,-0.259744 0.0955,-0.138766 0.12364,-0.379082 0.0642,-0.548199 -0.016,-0.04567 -0.0325,-0.08279 -0.0367,-0.08249 -0.004,3.01e-4 -0.0214,0.03021 -0.0384,0.06647 -0.0515,0.109725 -0.17722,0.160885 -0.29037,0.118131 -0.0797,-0.03013 -0.16361,-0.144165 -0.16361,-0.222485 0,-0.09014 0.0567,-0.181762 0.1392,-0.224806 l 0.0396,-0.02065 -0.0329,-0.01344 c -0.0181,-0.0074 -0.09,-0.01394 -0.1597,-0.01455 -0.11735,-10e-4 -0.1333,0.0021 -0.21455,0.0421 -0.26868,0.132272 -0.40841,0.428386 -0.3353,0.710545 0.0306,0.11798 0.068,0.189142 0.14234,0.270457 0.0784,0.08579 0.15642,0.134236 0.26724,0.165963 0.0956,0.02737 0.12836,0.0293 0.21587,0.0127 z m -4.56388,-2.315651 c -0.0405,-0.109369 0.21876,-0.470708 0.47683,-0.664685 0.35973,-0.270381 0.82564,-0.366505 1.21289,-0.250238 0.19835,0.05955 0.25873,0.118894 0.27066,0.265998 0.007,0.08572 -0.0189,0.148254 -0.0796,0.192853 -0.0481,0.03529 -0.16304,0.03644 -0.34778,0.0035 -0.1691,-0.03017 -0.43853,-0.03085 -0.58451,-0.0015 -0.28203,0.05677 -0.52348,0.171692 -0.75835,0.360945 -0.0839,0.06759 -0.1585,0.122885 -0.16581,0.122885 -0.007,0 -0.0183,-0.0134 -0.0243,-0.02977 z m 6.14946,-0.0962 c -0.0626,-0.04715 -0.28822,-0.200803 -0.3454,-0.235178 -0.13644,-0.08202 -0.4303,-0.157595 -0.69199,-0.177959 -0.12254,-0.0095 -0.34137,0.01008 -0.46571,0.04175 -0.1021,0.02601 -0.20372,0.02435 -0.25509,-0.0041 -0.0944,-0.0524 -0.12238,-0.117995 -0.10039,-0.235691 0.0157,-0.08404 0.0388,-0.117554 0.10961,-0.159056 0.15207,-0.08912 0.36231,-0.133129 0.58758,-0.122998 0.34102,0.01534 0.63707,0.138346 0.9241,0.383962 0.2106,0.180214 0.42257,0.541523 0.32364,0.551655 -0.0146,0.0015 -0.0535,-0.01756 -0.0863,-0.04234 z"
           id="path302" /></g></g></g></svg>
